<?xml version="1.0" encoding="utf-8"?>
<!-- Generator: Adobe Illustrator 27.5.0, SVG Export Plug-In . SVG Version: 6.00 Build 0)  -->
<svg version="1.1" xmlns="http://www.w3.org/2000/svg" xmlns:xlink="http://www.w3.org/1999/xlink" x="0px" y="0px"
	 viewBox="0 0 750 500" style="enable-background:new 0 0 750 500;" xml:space="preserve">
<g id="BACKGROUND">
	<rect style="fill:#FFFFFF;" width="750" height="500"/>
</g>
<g id="OBJECTS">
	<g>
		<path style="fill:#CDDBF0;" d="M491.56,91.054c-28.985,0-55.64,9.968-76.731,26.659c-27.434-21.573-62.035-34.441-99.642-34.441
			c-89.1,0-161.329,72.229-161.329,161.329S226.087,405.93,315.187,405.93c56.999,0,107.092-29.561,135.79-74.187
			c12.714,4.412,26.367,6.816,40.583,6.816c68.347,0,123.753-55.406,123.753-123.753C615.312,146.46,559.906,91.054,491.56,91.054z"
			/>
		<g>
			<path style="opacity:0.3;fill:#403867;" d="M519.621,247.94c-0.004-0.002-0.008-0.003-0.012-0.005
				c-1.485-0.624-3.007-0.967-4.519-1.136c-0.056-0.006-0.112-0.015-0.168-0.021c-0.459-0.047-0.915-0.075-1.37-0.088
				c-0.064-0.002-0.127-0.005-0.191-0.006c-0.459-0.009-0.913-0.004-1.366,0.017c-0.048,0.002-0.095,0.005-0.142,0.007
				c-0.133,0.007-0.266,0.011-0.398,0.02l1.622-3.854c3.592-8.536-14.617-24.344-40.671-35.307
				c-3.073-1.293-6.117-2.457-9.104-3.497c-1.134-5.016-2.314-9.397-4.983-10.025c-3.387-0.797-4.013,4.225-4.092,7.202
				c-0.55-0.15-1.095-0.294-1.638-0.434c-0.895-1.666-1.843-4.061-1.981-6.908c-0.271-5.572,1.823-14.442-3.365-16.904
				c-5.188-2.462-6.029,3.865-8.583,5.869c-2.554,2.005-3.617-3.254-4.452-8.913c-0.835-5.659-1.583-13.103-7.621-12.443
				c-6.038,0.66-5.844,14.304-4.582,26.737c0.406,4,1.072,7.673,1.787,10.825c-2.53,0.878-4.283,2.238-5.065,4.097l-2.25,5.347
				c-10.963,26.054,1.27,56.062,27.324,67.025h0c10.68,4.494,22.022,5.084,32.447,2.429c0.112,0.034,0.227,0.068,0.348,0.104
				c0.07,0.021,0.143,0.042,0.216,0.064c0.137,0.04,0.279,0.082,0.427,0.124c0.08,0.023,0.16,0.046,0.243,0.07
				c0.169,0.048,0.345,0.098,0.525,0.148c0.069,0.019,0.135,0.038,0.206,0.058c0.253,0.07,0.516,0.142,0.791,0.215
				c0.049,0.013,0.103,0.027,0.153,0.04c0.227,0.06,0.46,0.122,0.7,0.184c0.099,0.025,0.201,0.051,0.301,0.077
				c0.204,0.052,0.412,0.105,0.625,0.158c0.11,0.027,0.221,0.055,0.333,0.082c0.226,0.056,0.457,0.111,0.691,0.167
				c0.102,0.024,0.203,0.049,0.307,0.073c0.34,0.08,0.687,0.16,1.044,0.241l0,0c7.323,1.647,18.056,3.249,27.573,1.507
				c8.674-1.587,16.512-10.066,17.472-18.902C528.912,255.897,525.703,250.499,519.621,247.94z M509.119,272.46
				c-3.83,0.701-7.99,0.736-12,0.422c-0.602-0.047-1.199-0.103-1.792-0.165c-0.11-0.011-0.219-0.024-0.329-0.035
				c-0.527-0.057-1.05-0.119-1.567-0.186c-0.059-0.008-0.119-0.014-0.178-0.022c-0.579-0.076-1.15-0.158-1.713-0.244
				c-0.082-0.013-0.162-0.026-0.244-0.038c-0.324-0.05-0.64-0.104-0.958-0.158c6.07-3.703,11.415-8.68,15.568-14.766
				c0.014-0.006,0.026-0.012,0.04-0.017c0.062-0.025,0.125-0.051,0.188-0.076c0.684-0.275,1.442-0.545,2.245-0.782
				c0.062-0.018,0.124-0.036,0.187-0.054c0.814-0.232,1.667-0.425,2.527-0.548c0.067-0.01,0.133-0.018,0.2-0.026
				c0.428-0.056,0.856-0.098,1.28-0.113c1.258-0.045,2.484,0.104,3.562,0.557c0.002,0.001,0.004,0.002,0.007,0.003
				c2.452,1.032,3.422,2.637,3.143,5.204C518.804,265.839,514.355,271.502,509.119,272.46z"/>
			<path style="opacity:0.3;fill:#403867;" d="M556.456,288.129h-52.789c-4.438,0-8.036,3.598-8.036,8.036v26.232
				c0,4.438,3.598,8.036,8.036,8.036h5.021v9.784l9.784-9.784h37.984c4.438,0,8.036-3.598,8.036-8.036v-26.232
				C564.492,291.727,560.894,288.129,556.456,288.129z"/>
			<path style="opacity:0.3;fill:#403867;" d="M318.394,105.196h-39.846c-2.633,0-4.767,2.134-4.767,4.767v27.52
				c0,2.633,2.134,4.767,4.767,4.767h15.48l4.443,7.695l4.443-7.695h15.48c2.633,0,4.767-2.134,4.767-4.767v-27.52
				C323.162,107.33,321.027,105.196,318.394,105.196z"/>
			<path style="opacity:0.3;fill:#403867;" d="M538.24,255.277l-159.92-14.062c-2.724-0.24-4.737-2.642-4.498-5.365l9.686-110.152
				c0.24-2.724,2.642-4.738,5.365-4.498l159.92,14.062c2.724,0.24,4.738,2.642,4.498,5.365l-9.686,110.152
				C543.366,253.502,540.964,255.516,538.24,255.277z"/>
			<path style="opacity:0.3;fill:#403867;" d="M197.344,218.535l147.281-53.049c2.833-1.02,5.966,0.378,7.099,3.168l38.945,95.96
				c3.152,7.767-0.757,16.601-8.625,19.491L240.15,336.236c-8.892,3.267-18.807-0.797-22.849-9.364l-33.741-71.519
				c-1.555-3.296-0.019-7.221,3.36-8.585l13.218-5.338l-6.115-15.566C192.868,222.922,194.37,219.607,197.344,218.535z"/>
			<path style="opacity:0.3;fill:#403867;" d="M261.283,343.993c4.597-0.79,17.106,0,25.378,5.749
				c8.272,5.749,12.899,20.05,12.899,20.05s4.58-17.713-10.936-36.969c-15.517-19.255-42.641-14.202-42.641-14.202
				s-14.752-31.226-36.625-30.478c-21.873,0.748-31.781,10.282-31.781,10.282s14.301-4.066,15.984,1.262s-5.188,5.328-12.198,5.188
				c-7.011-0.14-19.349,4.066-25.799,11.778c-6.45,7.712-11.357,20.19-11.357,20.19s15.423-14.161,35.333-14.301
				s24.116,9.114,24.116,11.638c0,2.524-12.058-3.599-33.09,0.14c-21.361,3.798-24.116,8.693-26.36,11.077
				c-2.243,2.383-4.767,10.936-5.328,17.947c-0.561,7.01,0,12.759,0,12.759s9.534-13.881,25.378-15.563s21.032,5.608,20.471,7.712
				c-0.561,2.103-9.534-1.683-24.537,2.804c-11.718,3.505-19.209,13.881-20.19,15.563c-0.982,1.682,0.28,7.571,2.103,12.759
				c1.823,5.188,5.328,10.095,5.328,10.095s5.048-8.272,12.479-9.955c7.431-1.682,9.114,1.122,8.693,4.907
				c-0.421,3.786-9.254,0.701-13.741,7.852c-4.487,7.151-3.365,10.235-0.561,17.386c2.804,7.151,1.122,14.442,1.122,14.442
				s7.992-3.365,14.301-1.963c6.31,1.402,11.637,4.346,13.6,1.963c1.963-2.384,1.542-10.095-0.28-15.704
				c-1.823-5.608,4.019-11.918,7.291-5.188c3.272,6.73,4.907,14.862,3.786,18.695c-1.122,3.832-1.855,4.487-1.816,5.328
				c0.04,0.841,17.145,2.804,24.53-0.654c7.384-3.459,7.197-11.31,6.543-16.825c-0.654-5.515-6.543-22.527-9.768-28.276
				c-3.225-5.749-2.944-11.077,1.823-10.095c4.767,0.982,18.047,21.537,19.63,34.352c1.963,15.891-1.262,18.227-1.262,18.227
				s9.955,0.561,18.368-4.206c8.413-4.767,12.058-6.73,13.18-14.582c1.122-7.852,2.524-23.275-9.815-40.381
				c-12.339-17.106-17.666-21.312-19.91-24.397c-2.243-3.085,10.267-4.767,19.069,4.767c8.802,9.534,17.106,20.751,19.629,34.492
				c2.524,13.741,2.243,21.873,2.243,21.873s12.619-13.741,15.143-25.799c2.524-12.058,0.561-23.976-7.011-32.529
				c-7.571-8.553-16.405-13.04-21.452-14.302C258.198,347.638,256.685,344.783,261.283,343.993z M268.56,326.616
				c5.268-0.131,7.351,4.244,6.323,6.301c-1.028,2.056-7.852,0-7.852,0c-4.767-0.467-7.104,0-7.197-1.963
				C259.74,328.991,263.292,326.747,268.56,326.616z M221.603,311.885c-3.178,1.683-12.058,0.561-15.517-3.645
				c-3.459-4.206,1.776-5.795,6.169-5.422c4.393,0.374,9.347,3.926,9.347,3.926C224.037,308.248,224.781,310.202,221.603,311.885z"
				/>
			<path style="fill:#7BA859;" d="M257.917,339.79c4.597-0.79,17.106,0,25.378,5.749c8.272,5.749,12.899,20.05,12.899,20.05
				s4.58-17.713-10.936-36.969c-15.517-19.255-42.641-14.202-42.641-14.202s-14.752-31.226-36.625-30.478
				c-21.873,0.748-31.781,10.282-31.781,10.282s14.301-4.066,15.984,1.262s-5.188,5.328-12.198,5.188
				c-7.011-0.14-19.349,4.066-25.799,11.778c-6.45,7.712-11.357,20.19-11.357,20.19s15.423-14.161,35.333-14.302
				s24.116,9.114,24.116,11.638c0,2.524-12.058-3.599-33.09,0.14c-21.361,3.798-24.116,8.693-26.359,11.077
				c-2.243,2.384-4.767,10.936-5.328,17.947c-0.561,7.011,0,12.759,0,12.759s9.534-13.881,25.378-15.563
				c15.844-1.682,21.032,5.608,20.471,7.712c-0.561,2.103-9.534-1.682-24.537,2.804c-11.718,3.505-19.209,13.881-20.19,15.563
				c-0.982,1.682,0.28,7.571,2.103,12.759c1.823,5.188,5.328,10.095,5.328,10.095s5.048-8.272,12.479-9.955
				c7.431-1.683,9.114,1.122,8.693,4.907c-0.421,3.786-9.254,0.701-13.741,7.852c-4.487,7.151-3.365,10.235-0.561,17.386
				c2.804,7.151,1.122,14.442,1.122,14.442s7.992-3.365,14.301-1.963c6.31,1.402,11.637,4.346,13.6,1.963
				c1.963-2.384,1.542-10.095-0.28-15.704c-1.823-5.608,4.019-11.918,7.291-5.188c3.272,6.73,4.907,14.862,3.786,18.695
				c-1.122,3.832-1.855,4.487-1.816,5.328c0.04,0.841,17.145,2.804,24.53-0.654s7.197-11.31,6.543-16.825
				c-0.654-5.515-6.543-22.527-9.768-28.276c-3.225-5.749-2.944-11.077,1.823-10.095c4.767,0.981,18.047,21.537,19.63,34.352
				c1.963,15.891-1.262,18.227-1.262,18.227s9.955,0.561,18.368-4.206c8.413-4.767,12.058-6.73,13.18-14.582
				c1.122-7.852,2.524-23.275-9.815-40.381c-12.338-17.106-17.666-21.312-19.91-24.397c-2.243-3.085,10.267-4.767,19.069,4.767
				c8.802,9.534,17.106,20.751,19.629,34.492c2.524,13.741,2.243,21.873,2.243,21.873s12.619-13.741,15.143-25.799
				c2.524-12.058,0.561-23.976-7.01-32.529c-7.571-8.553-16.405-13.039-21.452-14.301
				C254.832,343.436,253.319,340.58,257.917,339.79z M265.194,322.413c5.268-0.131,7.351,4.244,6.323,6.301
				c-1.028,2.056-7.852,0-7.852,0c-4.767-0.467-7.104,0-7.197-1.963C256.375,324.788,259.927,322.545,265.194,322.413z
				 M218.237,307.682c-3.178,1.682-12.058,0.561-15.517-3.646c-3.459-4.206,1.776-5.795,6.169-5.422
				c4.393,0.374,9.347,3.926,9.347,3.926C220.672,304.045,221.415,306,218.237,307.682z"/>
			<path style="fill:#3D5539;" d="M243.108,309.645c0,0-19.262,19.629-38.611,47.672c-19.349,28.042-52.439,82.584-52.439,82.584
				s46.016-68.843,59.042-85.108c13.026-16.264,36.438-42.172,36.438-42.172L243.108,309.645z"/>
			<g>
				<path style="opacity:0.3;fill:#403867;" d="M129.087,176.368l65.721-78.425c6.24-7.447,18.202-5.345,21.531,3.782l35.058,96.128
					c3.329,9.128-4.472,18.436-14.041,16.755l-100.778-17.703C127.007,195.225,122.846,183.815,129.087,176.368z"/>
				<path style="fill:#545172;" d="M134.494,171.149l65.721-78.425c6.24-7.447,18.202-5.345,21.531,3.782l35.058,96.128
					c3.329,9.128-4.471,18.436-14.041,16.755l-100.779-17.703C132.415,190.005,128.254,178.596,134.494,171.149z"/>
				<path style="fill:#FFC672;" d="M210.131,99.447c0.798,0.14,1,0.693,1.076,0.902l35.058,96.128
					c0.076,0.208,0.278,0.762-0.243,1.383c-0.521,0.621-1.101,0.52-1.319,0.481l-100.778-17.703
					c-0.218-0.038-0.798-0.14-1.076-0.902c-0.278-0.762,0.1-1.213,0.243-1.383l65.72-78.425
					C208.954,99.758,209.332,99.307,210.131,99.447"/>
				<path style="fill:#545172;" d="M203.112,163.13l-8.086-1.421c-2.091-0.367-3.52-2.32-3.237-4.424l3.407-25.339
					c0.688-5.12,5.499-8.64,10.587-7.746h0c5.089,0.894,8.411,5.842,7.313,10.89l-5.433,24.983
					C207.212,162.149,205.203,163.498,203.112,163.13z"/>
				<path style="fill:#545172;" d="M204.845,175.23c-0.755,4.3-4.854,7.174-9.154,6.419c-4.3-0.755-7.174-4.854-6.419-9.154
					c0.755-4.3,4.854-7.174,9.154-6.419C202.727,166.831,205.601,170.929,204.845,175.23z"/>
			</g>
			<g>
				<path style="fill:#E7E6E9;" d="M533.803,247.224l-159.92-14.062c-2.724-0.239-4.737-2.642-4.498-5.365l9.686-110.152
					c0.24-2.724,2.642-4.737,5.365-4.498l159.92,14.062c2.724,0.239,4.737,2.642,4.498,5.365l-9.686,110.152
					C538.928,245.45,536.526,247.464,533.803,247.224z"/>
				<path style="fill:#545172;" d="M548.854,132.574c0.24-2.724-1.774-5.126-4.498-5.365l-159.92-14.062
					c-2.724-0.239-5.126,1.774-5.365,4.498l-0.83,9.44l169.784,14.929L548.854,132.574z"/>
				<path style="fill:#FFFDFF;" d="M523.532,132.619c-0.192,2.186-2.12,3.802-4.305,3.609s-3.802-2.12-3.609-4.305
					c0.192-2.186,2.12-3.802,4.305-3.609C522.109,128.506,523.725,130.434,523.532,132.619z"/>
				<path style="fill:#FFFDFF;" d="M534.427,133.577c-0.192,2.186-2.12,3.802-4.305,3.609s-3.802-2.12-3.609-4.305
					c0.192-2.186,2.12-3.801,4.305-3.609C533.003,129.464,534.619,131.392,534.427,133.577z"/>
				<path style="fill:#FFFDFF;" d="M545.321,134.535c-0.192,2.186-2.12,3.802-4.305,3.609c-2.186-0.192-3.802-2.12-3.609-4.305
					c0.192-2.186,2.12-3.802,4.305-3.609C543.897,130.422,545.513,132.35,545.321,134.535z"/>
				
					<rect x="385.598" y="156.255" transform="matrix(0.9962 0.0876 -0.0876 0.9962 17.6475 -37.0038)" style="fill:#F7C4A5;" width="89.735" height="52.657"/>
				
					<rect x="489.385" y="163.028" transform="matrix(0.9962 0.0872 -0.0872 0.9962 16.3403 -43.715)" style="fill:#898192;" width="38.185" height="4.25"/>
				
					<rect x="488.54" y="172.68" transform="matrix(0.9962 0.0872 -0.0872 0.9962 17.1788 -43.6046)" style="fill:#898192;" width="38.185" height="4.25"/>
				
					<rect x="487.695" y="182.331" transform="matrix(0.9962 0.0872 -0.0872 0.9962 18.0173 -43.4941)" style="fill:#898192;" width="38.185" height="4.25"/>
				
					<rect x="486.85" y="191.983" transform="matrix(0.9962 0.0872 -0.0872 0.9962 18.8558 -43.3836)" style="fill:#898192;" width="38.185" height="4.25"/>
				
					<rect x="486.009" y="201.593" transform="matrix(0.9962 0.0872 -0.0872 0.9962 19.6906 -43.2735)" style="fill:#898192;" width="38.185" height="4.25"/>
				
					<rect x="485.164" y="211.244" transform="matrix(0.9962 0.0872 -0.0872 0.9962 20.5291 -43.1632)" style="fill:#898192;" width="38.185" height="4.25"/>
				
					<rect x="483.822" y="226.295" transform="matrix(0.9962 0.0872 -0.0872 0.9962 21.8373 -42.9901)" style="fill:#898192;" width="38.185" height="4.25"/>
				
					<rect x="482.977" y="235.946" transform="matrix(0.9962 0.0872 -0.0872 0.9962 22.6751 -42.8784)" style="fill:#898192;" width="38.185" height="4.25"/>
				
					<rect x="433.586" y="221.878" transform="matrix(0.9962 0.0872 -0.0872 0.9962 21.26 -38.6246)" style="fill:#898192;" width="38.185" height="4.25"/>
				
					<rect x="432.741" y="231.529" transform="matrix(0.9962 0.0872 -0.0872 0.9962 22.0984 -38.5141)" style="fill:#898192;" width="38.185" height="4.25"/>
				
					<rect x="382.802" y="217.412" transform="matrix(0.9962 0.0872 -0.0872 0.9962 20.6777 -34.2138)" style="fill:#898192;" width="38.185" height="4.25"/>
				
					<rect x="381.958" y="227.064" transform="matrix(0.9962 0.0872 -0.0872 0.9962 21.5155 -34.1023)" style="fill:#898192;" width="38.185" height="4.25"/>
				
					<text transform="matrix(0.9962 0.0872 -0.0872 0.9962 387.0594 145.3392)" style="fill:#898192; font-family:'Montserrat-Bold'; font-size:15.7272px;">BREAKING NEWS</text>
				
					<ellipse transform="matrix(0.3328 -0.943 0.943 0.3328 109.2122 511.8551)" style="fill:#E58C7E;" cx="416.305" cy="178.754" rx="19.489" ry="19.489"/>
				
					<rect x="419.908" y="184.646" transform="matrix(0.9962 0.0876 -0.0876 0.9962 18.3851 -37.9402)" style="fill:#81A6D9;" width="43.185" height="11.743"/>
				<polygon style="fill:#7BA859;" points="424.897,181.366 439.039,161.188 449.442,183.524 				"/>
			</g>
			<path style="opacity:0.3;fill:#403867;" d="M242.617,314.418c0,0-14.752-31.226-36.625-30.478
				c-1.216,0.042-2.388,0.114-3.531,0.207l6.851,14.522c4.282,0.552,8.924,3.872,8.924,3.872c2.434,1.504,3.178,3.459,0,5.141
				c-0.995,0.527-2.549,0.778-4.32,0.747l6.807,14.429c4.042,8.568,13.957,12.631,22.849,9.364l13.068-4.801
				c-0.097-0.186-0.161-0.402-0.174-0.67c-0.094-1.963,3.459-4.206,8.726-4.338c1.313-0.033,2.428,0.215,3.346,0.636l7.329-2.693
				C260.769,311.044,242.617,314.418,242.617,314.418z"/>
			<path style="opacity:0.3;fill:#403867;" d="M242.762,209.389c9.569,1.681,17.369-7.627,14.041-16.755l-3.265-8.953
				l-51.508,18.552L242.762,209.389z"/>
			<path style="fill:#FFFDFF;" d="M200.767,206.831l147.281-53.049c2.833-1.02,5.966,0.378,7.099,3.168l38.945,95.96
				c3.152,7.767-0.757,16.601-8.625,19.491l-141.894,52.13c-8.892,3.267-18.807-0.797-22.849-9.364l-33.741-71.519
				c-1.555-3.296-0.018-7.221,3.36-8.585l13.218-5.338l-6.115-15.566C196.291,211.218,197.793,207.902,200.767,206.831z"/>
			<path style="fill:#D0CDD3;" d="M203.562,229.725l-13.218,5.338c-3.379,1.365-4.915,5.29-3.36,8.585l33.741,71.519
				c1.511,3.203,3.844,5.775,6.636,7.572c14.449-2.61,6.019-23.189,6.019-23.189L203.562,229.725z"/>
			<g>
				<g>
					
						<rect x="230.22" y="238.868" transform="matrix(0.9275 -0.3739 0.3739 0.9275 -80.3912 114.9266)" style="fill:#81A6D9;" width="51.59" height="51.59"/>
					
						<rect x="236.435" y="270.903" transform="matrix(0.9275 -0.3739 0.3739 0.9275 -85.7042 118.3685)" style="fill:#BBDE95;" width="51.59" height="18.35"/>
					<polygon style="fill:#3D5539;" points="243.108,271.729 277.397,248.711 282.724,261.923 245.246,277.033 					"/>
					<polygon style="fill:#7BA859;" points="255.616,272.852 230.599,270.607 234.876,281.214 					"/>
					<path style="fill:#FFC672;" d="M248.516,255.241c1.313,3.258-0.263,6.963-3.52,8.277c-3.258,1.313-6.963-0.263-8.276-3.52
						c-1.313-3.258,0.263-6.963,3.52-8.276C243.497,250.407,247.202,251.983,248.516,255.241z"/>
				</g>
				
					<rect x="274.714" y="221.777" transform="matrix(0.9275 -0.3739 0.3739 0.9275 -62.3894 126.0969)" style="fill:#898192;" width="38.185" height="4.148"/>
				
					<rect x="278.25" y="230.546" transform="matrix(0.9275 -0.3739 0.3739 0.9275 -65.4122 128.0554)" style="fill:#898192;" width="38.185" height="4.148"/>
				
					<rect x="281.785" y="239.316" transform="matrix(0.9275 -0.3739 0.3739 0.9275 -68.4348 130.0136)" style="fill:#898192;" width="38.185" height="4.148"/>
				
					<rect x="285.321" y="248.085" transform="matrix(0.9275 -0.3739 0.3739 0.9275 -71.4575 131.9717)" style="fill:#898192;" width="38.185" height="4.148"/>
				
					<rect x="288.842" y="256.818" transform="matrix(0.9275 -0.3739 0.3739 0.9275 -74.4672 133.9215)" style="fill:#898192;" width="38.185" height="4.148"/>
				
					<rect x="292.377" y="265.587" transform="matrix(0.9275 -0.3739 0.3739 0.9275 -77.4897 135.8793)" style="fill:#898192;" width="38.185" height="4.148"/>
				
					<rect x="319.625" y="203.67" transform="matrix(0.9275 -0.3739 0.3739 0.9275 -52.3616 141.5773)" style="fill:#898192;" width="38.185" height="4.148"/>
				
					<rect x="323.16" y="212.44" transform="matrix(0.9275 -0.3739 0.3739 0.9275 -55.3842 143.5349)" style="fill:#898192;" width="38.185" height="4.148"/>
				
					<rect x="326.696" y="221.21" transform="matrix(0.9275 -0.3739 0.3739 0.9275 -58.4068 145.493)" style="fill:#898192;" width="38.185" height="4.148"/>
				
					<rect x="330.232" y="229.979" transform="matrix(0.9275 -0.3739 0.3739 0.9275 -61.4294 147.4507)" style="fill:#898192;" width="38.185" height="4.148"/>
				
					<rect x="333.752" y="238.711" transform="matrix(0.9275 -0.3739 0.3739 0.9275 -64.4395 149.402)" style="fill:#898192;" width="38.185" height="4.148"/>
				
					<rect x="337.288" y="247.481" transform="matrix(0.9275 -0.3739 0.3739 0.9275 -67.462 151.3598)" style="fill:#898192;" width="38.185" height="4.148"/>
				
					<rect x="298.979" y="281.964" transform="matrix(0.9275 -0.3739 0.3739 0.9275 -83.1345 139.5368)" style="fill:#898192;" width="38.185" height="4.148"/>
				
					<rect x="246.102" y="303.282" transform="matrix(0.9275 -0.3739 0.3739 0.9275 -94.9416 121.3117)" style="fill:#898192;" width="38.185" height="4.148"/>
				
					<rect x="213.411" y="211.969" transform="matrix(0.9275 -0.3739 0.3739 0.9275 -59.345 122.1759)" style="fill:#898192;" width="143.621" height="4.148"/>
				
					<rect x="343.89" y="263.857" transform="matrix(0.9275 -0.3739 0.3739 0.9275 -73.1062 155.0153)" style="fill:#898192;" width="38.185" height="4.148"/>
				
					<text transform="matrix(0.9275 -0.3739 0.3739 0.9275 214.4009 230.3744)" style="fill:#898192; font-family:'Montserrat-Bold'; font-size:22.5535px;">NEWS</text>
			</g>
			<g>
				<polygon style="fill:#898192;" points="213.544,279.397 223.125,275.535 221.495,271.719 211.994,275.55 				"/>
				<polygon style="fill:#898192;" points="217.065,288.129 226.823,284.195 225.194,280.38 215.514,284.282 				"/>
				<polygon style="fill:#898192;" points="210.009,270.628 219.41,266.837 217.781,263.022 208.458,266.781 				"/>
				<polygon style="fill:#898192;" points="202.938,253.088 211.982,249.442 210.353,245.627 201.387,249.241 				"/>
				<polygon style="fill:#898192;" points="228.908,289.078 219.05,293.052 220.601,296.899 230.537,292.893 				"/>
				<polygon style="fill:#898192;" points="206.473,261.858 215.696,258.14 214.067,254.324 204.922,258.011 				"/>
			</g>
			<polygon style="opacity:0.3;fill:#403867;" points="565.276,262.71 541.661,256.382 547.989,279.997 552.928,275.058 
				563.161,285.291 570.57,277.882 560.337,267.649 			"/>
			<polygon style="fill:#FFFDFF;" points="567.519,255.709 543.905,249.381 550.232,272.996 555.172,268.056 565.404,278.289 
				572.813,270.881 562.58,260.648 			"/>
			<g>
				<path style="fill:#3D5539;" d="M187.504,386.129c0,0,0.721,0.692,1.84,1.935c1.123,1.252,2.684,3.072,4.389,5.381
					c1.71,2.303,3.58,5.084,5.32,8.215c0.887,1.556,1.705,3.217,2.508,4.914c0.762,1.718,1.511,3.474,2.129,5.28
					c0.653,1.792,1.173,3.63,1.626,5.45c0.241,0.906,0.393,1.827,0.59,2.723c0.169,0.903,0.289,1.803,0.433,2.683
					c0.094,0.887,0.185,1.759,0.275,2.612c0.043,0.857,0.084,1.695,0.125,2.51c0.013,1.633-0.005,3.176-0.133,4.594
					c-0.033,0.711-0.111,1.388-0.203,2.029c-0.087,0.642-0.152,1.253-0.245,1.822c-0.227,1.132-0.39,2.125-0.584,2.929
					c-0.415,1.601-0.652,2.516-0.652,2.516s0.203-0.922,0.558-2.536c0.164-0.809,0.29-1.805,0.474-2.938
					c0.071-0.57,0.113-1.18,0.176-1.821c0.068-0.64,0.12-1.315,0.127-2.022c0.074-1.41,0.035-2.939-0.037-4.552
					c-0.07-0.804-0.142-1.63-0.215-2.474c-0.12-0.838-0.242-1.694-0.367-2.565c-0.174-0.863-0.324-1.743-0.524-2.625
					c-0.228-0.876-0.409-1.773-0.68-2.655c-0.512-1.771-1.089-3.555-1.795-5.289c-0.671-1.747-1.47-3.442-2.278-5.095
					c-0.849-1.634-1.709-3.229-2.633-4.719c-1.816-2.999-3.744-5.648-5.495-7.831c-1.745-2.19-3.329-3.902-4.457-5.069
					c-1.139-1.173-1.806-1.765-1.806-1.765L187.504,386.129z"/>
			</g>
			<g>
				<path style="fill:#3D5539;" d="M184.654,389.068c0,0-0.134-0.126-0.387-0.363c-0.268-0.237-0.67-0.589-1.216-1.004
					c-1.083-0.837-2.729-1.951-4.869-2.986c-2.134-1.044-4.781-1.964-7.727-2.468c-1.475-0.21-3.016-0.398-4.591-0.37
					c-0.788-0.035-1.579,0.06-2.377,0.083c-0.792,0.092-1.594,0.157-2.385,0.294c-1.583,0.27-3.161,0.619-4.671,1.117
					c-0.762,0.229-1.509,0.482-2.231,0.782c-0.732,0.274-1.448,0.562-2.132,0.896c-1.396,0.607-2.68,1.331-3.905,2.005
					c-1.192,0.729-2.335,1.4-3.326,2.118c-0.503,0.349-0.984,0.683-1.442,1.001c-0.443,0.34-0.863,0.662-1.257,0.964
					c-0.798,0.596-1.475,1.139-2.011,1.613c-1.091,0.926-1.715,1.455-1.715,1.455s0.6-0.556,1.651-1.528
					c0.516-0.497,1.171-1.07,1.944-1.701c0.383-0.321,0.79-0.662,1.22-1.022c0.446-0.339,0.916-0.696,1.405-1.067
					c0.966-0.765,2.087-1.49,3.26-2.278c1.206-0.734,2.477-1.522,3.868-2.2c0.68-0.369,1.397-0.694,2.131-1.005
					c0.724-0.337,1.477-0.628,2.247-0.897c1.526-0.576,3.134-1.006,4.761-1.356c0.813-0.177,1.641-0.281,2.462-0.411
					c0.828-0.062,1.651-0.194,2.475-0.194c1.646-0.099,3.271,0.026,4.836,0.183c3.126,0.397,5.977,1.251,8.295,2.264
					c2.326,1.004,4.137,2.118,5.354,2.977c0.612,0.425,1.074,0.794,1.391,1.052c0.312,0.256,0.503,0.435,0.489,0.422
					L184.654,389.068z"/>
			</g>
			<g>
				<path style="fill:#3D5539;" d="M209.354,353.009c-0.015-0.012-0.198-0.188-0.632-0.549c-0.435-0.353-1.079-0.875-1.952-1.485
					c-1.736-1.221-4.34-2.853-7.706-4.34c-1.675-0.758-3.542-1.469-5.56-2.09c-2.01-0.651-4.19-1.138-6.459-1.558
					c-2.277-0.379-4.654-0.654-7.083-0.736c-1.214-0.072-2.44-0.018-3.671-0.033c-1.228,0.082-2.467,0.1-3.697,0.234
					c-2.462,0.243-4.921,0.592-7.305,1.126c-1.195,0.254-2.38,0.511-3.529,0.853c-1.156,0.317-2.303,0.616-3.401,1.009
					c-2.229,0.691-4.318,1.543-6.31,2.328c-1.946,0.889-3.82,1.666-5.468,2.554c-0.834,0.424-1.633,0.831-2.393,1.218
					c-0.741,0.422-1.444,0.823-2.105,1.199c-1.328,0.743-2.474,1.411-3.387,2.012c-1.848,1.167-2.905,1.834-2.905,1.834
					s1.037-0.697,2.853-1.915c0.897-0.628,2.025-1.328,3.333-2.109c0.652-0.396,1.345-0.817,2.076-1.261
					c0.751-0.409,1.541-0.84,2.365-1.289c1.629-0.938,3.487-1.77,5.421-2.72c1.98-0.845,4.062-1.763,6.291-2.523
					c1.098-0.427,2.247-0.762,3.407-1.115c1.153-0.379,2.345-0.673,3.548-0.964c2.401-0.608,4.888-1.034,7.389-1.351
					c1.25-0.171,2.512-0.226,3.764-0.344c1.257-0.021,2.51-0.111,3.754-0.072c2.49,0.015,4.938,0.228,7.292,0.552
					c2.346,0.365,4.609,0.806,6.705,1.42c2.104,0.583,4.058,1.265,5.819,2.003c3.538,1.446,6.304,3.071,8.174,4.309
					c0.938,0.617,1.646,1.157,2.13,1.529c0.478,0.374,0.755,0.622,0.741,0.609L209.354,353.009z"/>
			</g>
			<g>
				<path style="fill:#3D5539;" d="M206.964,358.808c0,0,1.324,0.567,3.446,1.732c2.135,1.166,5.118,2.943,8.475,5.392
					c1.684,1.215,3.452,2.608,5.253,4.159c1.811,1.541,3.62,3.28,5.428,5.137c1.773,1.89,3.56,3.89,5.192,6.067
					c1.681,2.139,3.18,4.466,4.619,6.82c1.362,2.401,2.649,4.846,3.688,7.354c0.525,1.251,1.048,2.491,1.455,3.758
					c0.218,0.628,0.434,1.251,0.65,1.87c0.18,0.63,0.358,1.256,0.535,1.876c0.174,0.621,0.348,1.236,0.519,1.846
					c0.135,0.619,0.269,1.232,0.401,1.838c0.131,0.606,0.26,1.206,0.388,1.798c0.124,0.593,0.19,1.19,0.286,1.772
					c0.413,2.327,0.556,4.557,0.741,6.605c0.028,1.028,0.055,2.014,0.081,2.951c0.036,0.937,0.046,1.825-0.004,2.66
					c-0.085,1.668-0.057,3.126-0.214,4.317c-0.231,2.384-0.363,3.746-0.363,3.746s0.097-1.365,0.267-3.753
					c0.127-1.191,0.061-2.648,0.104-4.312c0.028-0.833-0.004-1.718-0.064-2.65c-0.049-0.932-0.101-1.912-0.156-2.934
					c-0.237-2.034-0.435-4.243-0.904-6.541c-0.11-0.575-0.19-1.164-0.328-1.749c-0.142-0.584-0.285-1.174-0.43-1.772
					c-0.146-0.596-0.294-1.199-0.443-1.808c-0.185-0.599-0.372-1.203-0.56-1.813c-0.19-0.608-0.382-1.222-0.576-1.84
					c-0.228-0.606-0.458-1.216-0.689-1.83c-0.433-1.239-0.98-2.449-1.529-3.668c-1.086-2.444-2.415-4.818-3.813-7.142
					c-1.475-2.277-3.002-4.522-4.706-6.578c-1.654-2.094-3.457-4.009-5.24-5.815c-1.818-1.773-3.631-3.43-5.442-4.891
					c-1.801-1.473-3.564-2.79-5.239-3.934c-3.339-2.308-6.291-3.964-8.385-5.039c-2.107-1.085-3.318-1.564-3.318-1.564
					L206.964,358.808z"/>
			</g>
			<g>
				<path style="fill:#3D5539;" d="M223.844,334.078c0,0-0.598-1.015-1.907-2.742c-0.641-0.863-1.472-1.874-2.45-3.015
					c-1.003-1.118-2.143-2.378-3.489-3.652c-2.659-2.575-6.046-5.312-10.026-7.692c-1.994-1.182-4.135-2.269-6.384-3.208
					c-2.256-0.914-4.607-1.722-7.025-2.275l-1.812-0.421l-1.832-0.301c-1.216-0.238-2.448-0.309-3.665-0.435
					c-1.217-0.138-2.435-0.095-3.635-0.152c-1.2-0.016-2.386,0.081-3.553,0.114c-1.166,0.073-2.305,0.239-3.425,0.349
					c-1.12,0.117-2.196,0.37-3.256,0.541c-1.063,0.16-2.071,0.442-3.053,0.681c-0.979,0.252-1.938,0.45-2.825,0.761
					c-1.79,0.566-3.44,1.064-4.85,1.655c-1.424,0.551-2.676,1.012-3.661,1.496c-1.998,0.91-3.139,1.431-3.139,1.431
					s1.127-0.552,3.099-1.519c0.974-0.513,2.213-1.009,3.625-1.601c1.398-0.632,3.038-1.178,4.821-1.797
					c0.883-0.337,1.841-0.564,2.82-0.845c0.982-0.268,1.99-0.581,3.057-0.772c1.063-0.203,2.144-0.488,3.272-0.639
					c1.129-0.144,2.278-0.344,3.457-0.45c1.182-0.068,2.383-0.199,3.602-0.217c1.219,0.022,2.459-0.055,3.702,0.051
					c1.243,0.093,2.503,0.132,3.751,0.339l1.882,0.256l1.865,0.378c2.491,0.497,4.925,1.257,7.27,2.132
					c2.337,0.899,4.571,1.956,6.658,3.116c4.166,2.335,7.736,5.059,10.554,7.639c1.425,1.276,2.64,2.543,3.71,3.672
					c1.046,1.152,1.937,2.177,2.631,3.059c0.701,0.875,1.226,1.586,1.577,2.084c0.176,0.255,0.311,0.451,0.402,0.583
					c0.087,0.131,0.131,0.199,0.131,0.199L223.844,334.078z"/>
			</g>
			<g>
				<path style="fill:#3D5539;" d="M223.445,333.37c0,0,1.386,0.421,3.665,1.321c2.291,0.899,5.518,2.28,9.251,4.212
					c1.871,0.955,3.859,2.064,5.927,3.293c2.062,1.238,4.201,2.604,6.348,4.111c1.082,0.74,2.141,1.553,3.23,2.348
					c1.053,0.845,2.155,1.652,3.198,2.551c1.057,0.882,2.118,1.774,3.138,2.724c1.046,0.919,2.042,1.9,3.038,2.88
					c1.016,0.959,1.934,2.017,2.901,3.015c0.935,1.03,1.829,2.09,2.728,3.128c0.846,1.084,1.716,2.134,2.517,3.215
					c0.774,1.102,1.587,2.156,2.297,3.254c0.698,1.106,1.435,2.16,2.063,3.251c0.621,1.094,1.261,2.145,1.823,3.202
					c0.543,1.067,1.071,2.104,1.581,3.108c0.458,1.028,0.9,2.022,1.324,2.976c0.446,0.945,0.764,1.895,1.108,2.781
					c0.324,0.894,0.681,1.723,0.926,2.535c0.493,1.621,0.983,3.016,1.281,4.194c0.594,2.357,0.934,3.703,0.934,3.703
					s-0.373-1.337-1.026-3.677c-0.327-1.169-0.852-2.549-1.384-4.152c-0.264-0.803-0.642-1.621-0.986-2.503
					c-0.365-0.874-0.705-1.811-1.173-2.74c-0.446-0.938-0.911-1.915-1.391-2.926c-0.533-0.984-1.083-2.002-1.649-3.048
					c-0.584-1.035-1.247-2.063-1.889-3.132c-0.649-1.065-1.408-2.093-2.126-3.17c-0.73-1.07-1.563-2.094-2.356-3.164
					c-0.82-1.05-1.708-2.068-2.57-3.117c-0.915-1.005-1.825-2.03-2.774-3.023c-0.982-0.963-1.912-1.983-2.94-2.905
					c-1.008-0.942-2.014-1.885-3.07-2.766c-1.029-0.911-2.098-1.764-3.162-2.608c-1.05-0.86-2.158-1.629-3.215-2.435
					c-1.094-0.756-2.156-1.53-3.24-2.232c-2.151-1.431-4.29-2.722-6.35-3.889c-2.064-1.158-4.046-2.198-5.908-3.09
					c-3.714-1.805-6.911-3.078-9.164-3.897c-2.264-0.827-3.548-1.18-3.548-1.18L223.445,333.37z"/>
			</g>
			<path style="opacity:0.3;fill:#403867;" d="M470.878,300.714l-2.243-8.787c0,0-23.929-6.259-41.876-2.707
				c-17.947,3.552-34.398,13.363-34.398,13.363s-11.03-1.869-20.003,5.609c0,0-17.467-6.234-38.217-1.122
				c-27.401,6.75-42.255,19.888-42.255,19.888l2.367,9.347l7.419,3.081c0,0,1.329,17.412,11.05,23.581
				c9.721,6.169,31.594,4.325,45.019-1.638c13.04-5.792,16.446-12.36,17.378-22.59c1.007-11.049,0.417-19.138,0.417-19.138
				s2.068-5.053,7.764-6.081s10.113,1.522,10.113,1.522s3.063,15.912,9.978,22.501c7.945,7.571,18.865,11.353,34.905,7.248
				c15.72-4.023,25.278-7.753,27.248-13.95c1.97-6.197,0-25.266,0-25.266L470.878,300.714z"/>
			<g>
				<path style="fill:#545172;" d="M376.114,303.009c0,0-17.467-6.234-38.217-1.122c-27.401,6.75-42.255,19.888-42.255,19.888
					l2.367,9.347l7.419,3.081c0,0,1.329,17.412,11.05,23.581c9.721,6.169,31.594,4.325,45.019-1.638
					c13.04-5.792,16.446-12.36,17.378-22.59c1.007-11.049,0.417-19.138,0.417-19.138s2.069-5.053,7.764-6.081
					s10.113,1.522,10.113,1.522s3.063,15.912,9.978,22.501c7.945,7.571,18.865,11.353,34.905,7.248
					c15.72-4.023,25.278-7.753,27.248-13.95c1.97-6.197,0-25.266,0-25.266l5.335-4.861l-2.243-8.786c0,0-23.929-6.259-41.876-2.707
					c-17.947,3.552-34.398,13.363-34.398,13.363S385.088,295.531,376.114,303.009z"/>
				<path style="fill:#CDDBF0;" d="M310.851,324.645l4.336,18.932c0,0,3.575,10.026,16.454,9.5
					c12.879-0.526,30.102-3.517,36.166-12.678c4.751-7.177,2.796-21.698,1.727-27.65c-0.286-1.595-1.582-2.813-3.191-2.995
					c-8.325-0.945-34.436-2.563-53.993,11.03C311.111,321.645,310.514,323.173,310.851,324.645z"/>
				<path style="fill:#CDDBF0;" d="M403.755,305.038c-0.435-1.673,0.324-3.436,1.849-4.25c5.114-2.73,17.009-8.549,27.857-9.931
					c10.331-1.317,19.052,0.074,23.099,0.947c1.471,0.318,2.598,1.485,2.872,2.966c1.178,6.358,4.125,23.574,2.305,27.507
					c-2.243,4.848-26.92,12.513-38.137,10.083C412.854,330.031,409.143,325.731,403.755,305.038z"/>
				<g style="opacity:0.2;">
					<path style="fill:#FFFDFF;" d="M335.96,311.046l-21.551,29.134l0.778,3.397c0,0,3.185,8.902,14.34,9.482l32.324-43.697
						C355.654,308.964,346.118,308.93,335.96,311.046z"/>
					<path style="fill:#FFFDFF;" d="M370.832,327.794c0.151-5.842-0.706-11.754-1.298-15.046c-0.139-0.774-0.519-1.456-1.053-1.977
						l-30.999,41.906c5.896-0.564,12.169-1.675,17.622-3.621L370.832,327.794z"/>
				</g>
				<g style="opacity:0.2;">
					<path style="fill:#FFFDFF;" d="M433.461,290.857c-4.529,0.577-9.234,1.931-13.558,3.507l-13.863,18.74
						c3.293,10.497,6.422,15.007,11.745,17.437l29.611-40.03C443.412,290.217,438.639,290.197,433.461,290.857z"/>
					<path style="fill:#FFFDFF;" d="M459.431,294.77c-0.274-1.48-1.4-2.648-2.872-2.966c-0.607-0.131-1.331-0.274-2.137-0.417
						l-30.369,41.055c4.096,0.769,9.813,0.296,15.575-0.853l21.191-28.647C460.314,299.664,459.79,296.71,459.431,294.77z"/>
				</g>
				<path style="fill:#FFFDFF;" d="M352.279,312.449c0,0,9.324-0.491,10.376,4.347c1.052,4.837-5.188,6.125-11.848,5.481
					c-6.66-0.644-9.674-1.823-10.516-4.844C339.449,314.412,345.031,312.396,352.279,312.449z"/>
				<path style="fill:#FFFDFF;" d="M336.084,317.777c0,1.975-1.601,3.575-3.575,3.575c-1.975,0-3.575-1.601-3.575-3.575
					c0-1.975,1.601-3.575,3.575-3.575C334.484,314.202,336.084,315.803,336.084,317.777z"/>
				<path style="fill:#FFFDFF;" d="M446.22,294.503c0,0,9.324-0.491,10.376,4.346c1.052,4.837-5.188,6.125-11.848,5.481
					c-6.66-0.644-9.674-1.823-10.516-4.844C433.39,296.465,438.972,294.449,446.22,294.503z"/>
				<path style="fill:#FFFDFF;" d="M430.025,299.831c0,1.975-1.601,3.575-3.575,3.575c-1.975,0-3.575-1.601-3.575-3.575
					s1.601-3.575,3.575-3.575C428.425,296.255,430.025,297.856,430.025,299.831z"/>
			</g>
			<path style="fill:#CDDBF0;" d="M450.992,385.078c-4.2,0-8.157,1.032-11.641,2.846c-2.807-6.491-9.263-11.037-16.786-11.037
				c-10.099,0-18.286,8.187-18.286,18.286c0,1.038,0.107,2.049,0.273,3.04c-0.092-0.002-0.181-0.014-0.273-0.014
				c-8.428,0-15.26,6.832-15.26,15.26h87.015c0.128-1.029,0.201-2.074,0.201-3.138C476.235,396.38,464.934,385.078,450.992,385.078z
				"/>
			<path style="fill:#CDDBF0;" d="M517.331,46.13c5.497,0,10.675,1.35,15.235,3.725c3.674-8.495,12.122-14.444,21.967-14.444
				c13.216,0,23.93,10.714,23.93,23.93c0,1.358-0.14,2.682-0.357,3.978c0.12-0.002,0.237-0.018,0.357-0.018
				c11.029,0,19.97,8.941,19.97,19.97H484.559c-0.167-1.346-0.263-2.715-0.263-4.106C484.296,60.92,499.086,46.13,517.331,46.13z"/>
			<g>
				<path style="opacity:0.3;fill:#403867;" d="M512.837,241.583c-0.004-0.002-0.008-0.003-0.012-0.005
					c-1.485-0.624-3.007-0.967-4.519-1.136c-0.056-0.006-0.112-0.015-0.168-0.021c-0.459-0.047-0.915-0.075-1.371-0.088
					c-0.063-0.002-0.126-0.005-0.189-0.006c-0.458-0.009-0.912-0.004-1.364,0.017c-0.049,0.002-0.098,0.005-0.146,0.008
					c-0.132,0.007-0.265,0.011-0.396,0.02l1.622-3.854c3.592-8.536-14.617-24.344-40.671-35.307
					c-3.073-1.293-6.117-2.457-9.104-3.497c-1.134-5.016-2.314-9.397-4.983-10.025c-3.387-0.797-4.013,4.225-4.092,7.202
					c-0.55-0.15-1.096-0.294-1.638-0.434c-0.895-1.666-1.843-4.061-1.981-6.908c-0.271-5.572,1.823-14.442-3.365-16.904
					s-6.029,3.865-8.583,5.87c-2.554,2.005-3.617-3.254-4.452-8.913c-0.835-5.659-1.584-13.103-7.621-12.443
					c-6.038,0.66-5.844,14.304-4.582,26.737c0.406,4,1.072,7.673,1.787,10.825c-2.53,0.878-4.283,2.238-5.065,4.097l-2.25,5.347
					c-4.714,11.203-5.129,23.133-2.011,33.969l110.982,9.759C517.221,244.081,515.262,242.604,512.837,241.583z"/>
				<circle style="opacity:0.3;fill:#403867;" cx="404.943" cy="185.123" r="4.826"/>
				<path style="opacity:0.3;fill:#403867;" d="M466.6,194.14c2.202,0,3.987-1.785,3.987-3.986c0-2.202-1.785-3.987-3.987-3.987
					c-2.202,0-3.987,1.785-3.987,3.987C462.614,192.355,464.398,194.14,466.6,194.14z"/>
				<path style="opacity:0.3;fill:#403867;" d="M446.89,163.144c1.662,0,3.01-1.348,3.01-3.01c0-1.662-1.348-3.01-3.01-3.01
					s-3.01,1.348-3.01,3.01C443.88,161.797,445.227,163.144,446.89,163.144z"/>
				<path style="opacity:0.3;fill:#403867;" d="M426.751,139.871c3.529,0,6.389-2.86,6.389-6.389c0-3.528-2.86-6.389-6.389-6.389
					s-6.389,2.86-6.389,6.389C420.362,137.01,423.223,139.871,426.751,139.871z"/>
			</g>
			<g>
				<g>
					<path style="fill:#E58C7E;" d="M471.134,269.323l2.898-8.492c0.177,0.06,18.112,6.07,31.819,3.562
						c5.235-0.958,9.685-6.621,10.165-11.045c0.279-2.567-0.69-4.172-3.143-5.204c-0.003-0.001-0.005-0.002-0.007-0.003
						c-4.224-1.774-10.695,1.079-12.628,2.218l-4.554-7.732c1.16-0.683,11.594-6.564,20.657-2.759
						c0.004,0.002,0.008,0.003,0.012,0.005c6.081,2.559,9.29,7.958,8.584,14.445c-0.96,8.836-8.798,17.315-17.472,18.902
						C491.436,276.153,471.956,269.604,471.134,269.323z"/>
				</g>
				<g>
					<path style="fill:#935771;" d="M493.853,264.815c-10.343-0.809-19.693-3.941-19.82-3.984l-2.898,8.492
						c0.334,0.114,3.747,1.263,8.758,2.39C484.857,270.139,489.569,267.816,493.853,264.815z"/>
					<path style="fill:#935771;" d="M495.684,242.626l4.554,7.732c1.44-0.848,5.396-2.644,9.067-2.775
						c0.847-1.545,1.624-3.146,2.322-4.805l1.614-3.835C505.045,237.337,496.714,242.02,495.684,242.626z"/>
				</g>
				<path style="fill:#E58C7E;" d="M440.535,267.479L440.535,267.479c-26.054-10.963-38.287-40.971-27.324-67.025l2.25-5.347
					l94.349,39.701l-2.25,5.347C496.597,266.209,466.589,278.442,440.535,267.479z"/>
				<path style="opacity:0.2;fill:#FFFDFF;" d="M428.371,206.739l2.671-3.967l-8.948-6.024l-2.67,3.967
					c-13.012,19.328-7.893,45.545,11.435,58.557h0c1.517,1.021,3.08,1.918,4.672,2.718
					C419.797,248.202,416.38,224.55,428.371,206.739z"/>
				<path style="opacity:0.2;fill:#FFFDFF;" d="M491.164,238.973l1.769-4.442l10.021,3.992l-1.77,4.442
					c-8.622,21.646-33.159,32.204-54.805,23.581h0c-1.699-0.677-3.321-1.462-4.879-2.326
					C461.759,269.438,483.218,258.92,491.164,238.973z"/>
				
					<ellipse transform="matrix(0.3878 -0.9217 0.9217 0.3878 85.0708 558.0078)" style="fill:#E7E6E9;" cx="462.635" cy="214.958" rx="16.769" ry="51.181"/>
				<path style="fill:#CBCACB;" d="M501.681,231.388c-2.52,5.988-22.044,3.486-43.608-5.588
					c-21.564-9.074-37.003-21.284-34.484-27.272c2.52-5.988,22.044-3.486,43.608,5.588
					C488.762,213.19,504.201,225.4,501.681,231.388z"/>
				<g style="opacity:0.2;">
					<path style="fill:#FFFDFF;" d="M517.431,265.27c-0.109-0.046-0.217-0.101-0.32-0.166c-1.051-0.656-1.371-2.04-0.715-3.091
						c6.57-10.521-1.451-16.305-1.795-16.546c-1.016-0.71-1.262-2.109-0.552-3.124c0.71-1.016,2.114-1.264,3.124-0.553
						c0.119,0.083,11.828,8.508,3.03,22.599C519.611,265.337,518.428,265.69,517.431,265.27z"/>
				</g>
				<path style="fill:#6F4C61;" d="M423.767,201.964c2.578,6.502,16.303,16.26,34.306,23.836
					c13.874,5.838,26.897,8.953,35.094,8.838c-0.073-0.036-0.146-0.073-0.234-0.107c-7.548-2.906-23.532-14.31-29.608-27.031
					c-3.487-7.301-3.505-20.398-8.272-21.52c-4.767-1.122-4.066,9.291-4.066,9.291s-3.374-3.859-3.645-9.431
					c-0.271-5.572,1.823-14.442-3.365-16.904c-5.188-2.462-6.029,3.865-8.583,5.87c-2.554,2.005-3.617-3.254-4.452-8.913
					c-0.835-5.659-1.584-13.103-7.621-12.443c-6.038,0.66-5.844,14.304-4.582,26.737C420,192.619,423.767,201.964,423.767,201.964z"
					/>
				<circle style="fill:#6F4C61;" cx="408.459" cy="183.412" r="4.826"/>
				<path style="fill:#6F4C61;" d="M474.103,188.443c0,2.202-1.785,3.986-3.987,3.986c-2.202,0-3.987-1.785-3.987-3.986
					c0-2.202,1.785-3.987,3.987-3.987C472.318,184.456,474.103,186.241,474.103,188.443z"/>
				<path style="fill:#6F4C61;" d="M453.415,158.423c0,1.662-1.348,3.01-3.01,3.01c-1.662,0-3.01-1.348-3.01-3.01
					c0-1.662,1.348-3.01,3.01-3.01C452.068,155.414,453.415,156.761,453.415,158.423z"/>
				<path style="fill:#6F4C61;" d="M420.255,107.27c0,2.217-1.797,4.014-4.014,4.014s-4.014-1.797-4.014-4.014
					c0-2.217,1.797-4.014,4.014-4.014S420.255,105.053,420.255,107.27z"/>
				<path style="fill:#6F4C61;" d="M436.656,131.771c0,3.528-2.86,6.389-6.389,6.389s-6.389-2.86-6.389-6.389
					c0-3.528,2.86-6.389,6.389-6.389S436.656,128.243,436.656,131.771z"/>
				<path style="opacity:0.3;fill:#FFFDFF;" d="M421.356,175.884c0,0-1.355-7.431-0.654-12.058c0.701-4.627,2.359-6.45,3.716-4.276
					c1.357,2.173,0.28,10.726,0,14.161C424.137,177.146,422.15,179.039,421.356,175.884z"/>
				<circle style="opacity:0.3;fill:#FFFDFF;" cx="423.459" cy="183.222" r="1.636"/>
				<path style="opacity:0.3;fill:#FFFDFF;" d="M435.003,179.32c0.142-0.209,3.085-5.118,4.837-4.276
					c1.753,0.841,0.701,4.253-2.419,6.543C434.302,183.876,433.878,180.98,435.003,179.32z"/>
				<path style="opacity:0.3;fill:#FFFDFF;" d="M459.119,204.212c0,0,1.564,4.751,3.516,7.631c1.952,2.88,3.564,4.212,1.531,6.105
					c-2.033,1.893-4.767-1.753-6.52-6.169c-1.753-4.417-3.505-10.165-1.753-11.217C457.647,199.51,458.12,201.544,459.119,204.212z"
					/>
				<path style="opacity:0.3;fill:#FFFDFF;" d="M456.829,195.107c0,0,0.841-3.145-0.234-4.127c-1.075-0.981-1.869-0.421-2.243,1.87
					C453.978,195.14,456.02,197.188,456.829,195.107z"/>
				<circle style="opacity:0.3;fill:#FFFDFF;" cx="406.328" cy="182.315" r="1.755"/>
				<circle style="opacity:0.3;fill:#FFFDFF;" cx="415.514" cy="105.779" r="1.262"/>
				<path style="opacity:0.3;fill:#FFFDFF;" d="M431.081,129.995c0,1.339-1.085,2.424-2.424,2.424s-2.424-1.085-2.424-2.424
					c0-1.339,1.085-2.424,2.424-2.424S431.081,128.656,431.081,129.995z"/>
				<path style="opacity:0.3;fill:#FFFDFF;" d="M450.667,157.392c0,0.57-0.462,1.032-1.032,1.032c-0.57,0-1.032-0.462-1.032-1.032
					s0.462-1.032,1.032-1.032C450.205,156.36,450.667,156.822,450.667,157.392z"/>
				<path style="opacity:0.3;fill:#FFFDFF;" d="M470.336,187.171c0,0.755-0.612,1.367-1.367,1.367c-0.755,0-1.367-0.612-1.367-1.367
					c0-0.755,0.612-1.367,1.367-1.367C469.724,185.804,470.336,186.416,470.336,187.171z"/>
			</g>
			<g>
				<path style="fill:#FFFDFF;" d="M322.18,101.105h-39.846c-2.633,0-4.767,2.134-4.767,4.767v27.52
					c0,2.633,2.134,4.767,4.767,4.767h15.48l4.443,7.695l4.443-7.695h15.48c2.633,0,4.767-2.134,4.767-4.767v-27.52
					C326.947,103.24,324.813,101.105,322.18,101.105z"/>
				<path style="fill:#F06F76;" d="M315.318,108.907c-3.607-3.607-9.454-3.607-13.061,0c-3.607-3.607-9.454-3.607-13.061,0
					c-3.607,3.607-3.607,9.454,0,13.061l13.061,13.061l13.061-13.061C318.925,118.362,318.925,112.514,315.318,108.907z"/>
			</g>
			<g>
				<path style="fill:#FFFDFF;" d="M551.542,284.728h-52.789c-4.438,0-8.036,3.598-8.036,8.036v26.232
					c0,4.438,3.598,8.036,8.036,8.036h5.021v9.784l9.784-9.784h37.984c4.438,0,8.036-3.598,8.036-8.036v-26.232
					C559.578,288.325,555.98,284.728,551.542,284.728z"/>
				<g>
					<path style="fill:#545172;" d="M512.94,305.858c0,2.714-2.2,4.914-4.914,4.914c-2.714,0-4.914-2.2-4.914-4.914
						c0-2.714,2.2-4.914,4.914-4.914C510.74,300.944,512.94,303.144,512.94,305.858z"/>
					<circle style="fill:#545172;" cx="525.148" cy="305.858" r="4.914"/>
					<path style="fill:#545172;" d="M547.183,305.858c0,2.714-2.2,4.914-4.914,4.914c-2.714,0-4.914-2.2-4.914-4.914
						c0-2.714,2.2-4.914,4.914-4.914C544.983,300.944,547.183,303.144,547.183,305.858z"/>
				</g>
			</g>
			<path style="fill:#FFC672;" d="M246.824,62.856h-3.582v-3.582c0-1.814-1.471-3.284-3.285-3.284c-1.814,0-3.284,1.471-3.284,3.284
				v3.582h-3.582c-1.814,0-3.284,1.47-3.284,3.284c0,1.814,1.47,3.285,3.284,3.285h3.582v3.582c0,1.814,1.47,3.284,3.284,3.284
				c1.814,0,3.285-1.47,3.285-3.284v-3.582h3.582c1.814,0,3.285-1.47,3.285-3.285C250.109,64.326,248.638,62.856,246.824,62.856z"/>
			<path style="fill:#FFC672;" d="M584.825,189.145h-3.582v-3.582c0-1.814-1.471-3.284-3.284-3.284c-1.814,0-3.284,1.47-3.284,3.284
				v3.582h-3.582c-1.814,0-3.285,1.47-3.285,3.284s1.471,3.285,3.285,3.285h3.582v3.582c0,1.814,1.471,3.285,3.284,3.285
				c1.814,0,3.284-1.471,3.284-3.285v-3.582h3.582c1.814,0,3.284-1.471,3.284-3.285S586.639,189.145,584.825,189.145z"/>
			<path style="fill:#FFC672;" d="M303.692,421.202h-3.582v-3.582c0-1.814-1.47-3.284-3.284-3.284c-1.814,0-3.284,1.471-3.284,3.284
				v3.582h-3.582c-1.814,0-3.284,1.47-3.284,3.284c0,1.814,1.47,3.284,3.284,3.284h3.582v3.582c0,1.814,1.47,3.284,3.284,3.284
				c1.814,0,3.284-1.47,3.284-3.284v-3.582h3.582c1.814,0,3.284-1.47,3.284-3.284C306.976,422.672,305.506,421.202,303.692,421.202z
				"/>
			<path style="fill:#CDDBF0;" d="M138.625,227.548c0,1.958-1.587,3.546-3.546,3.546c-1.958,0-3.546-1.587-3.546-3.546
				c0-1.958,1.587-3.546,3.546-3.546C137.038,224.003,138.625,225.59,138.625,227.548z"/>
			<path style="fill:#FFFDFF;" d="M356.39,131.771c0,1.958-1.587,3.546-3.546,3.546c-1.958,0-3.546-1.587-3.546-3.546
				c0-1.958,1.587-3.546,3.546-3.546C354.803,128.226,356.39,129.813,356.39,131.771z"/>
			<path style="fill:#FFFDFF;" d="M348.045,386.668c0,1.958-1.587,3.546-3.546,3.546s-3.546-1.587-3.546-3.546
				c0-1.958,1.587-3.546,3.546-3.546S348.045,384.709,348.045,386.668z"/>
			<circle style="fill:#FFFDFF;" cx="572.813" cy="145.341" r="3.546"/>
			<path style="fill:#CDDBF0;" d="M358.503,426.655c0,1.198-0.971,2.169-2.169,2.169s-2.169-0.971-2.169-2.169
				c0-1.198,0.971-2.169,2.169-2.169S358.503,425.457,358.503,426.655z"/>
			<path style="fill:#FFFDFF;" d="M572.739,229.725c0,1.198-0.971,2.169-2.169,2.169s-2.169-0.971-2.169-2.169
				s0.971-2.169,2.169-2.169S572.739,228.527,572.739,229.725z"/>
			<path style="fill:#FFFDFF;" d="M175.118,256.285c0,1.198-0.971,2.169-2.169,2.169s-2.169-0.971-2.169-2.169
				c0-1.198,0.971-2.169,2.169-2.169S175.118,255.087,175.118,256.285z"/>
			<path style="fill:#FFFDFF;" d="M485.878,104.517c0,1.198-0.971,2.169-2.169,2.169c-1.198,0-2.169-0.971-2.169-2.169
				s0.971-2.169,2.169-2.169C484.907,102.348,485.878,103.319,485.878,104.517z"/>
			<path style="fill:#FFFDFF;" d="M281.028,154.116c0,1.198-0.971,2.169-2.169,2.169c-1.198,0-2.169-0.971-2.169-2.169
				s0.971-2.169,2.169-2.169C280.057,151.947,281.028,152.918,281.028,154.116z"/>
			<path style="fill:#CDDBF0;" d="M554.462,386.668c0,1.497-1.214,2.711-2.711,2.711c-1.497,0-2.711-1.214-2.711-2.711
				s1.214-2.711,2.711-2.711C553.249,383.957,554.462,385.17,554.462,386.668z"/>
			<path style="fill:#CDDBF0;" d="M616.903,144.384c0,1.91-1.549,3.459-3.459,3.459s-3.458-1.549-3.458-3.459
				c0-1.91,1.548-3.458,3.458-3.458S616.903,142.474,616.903,144.384z"/>
			
				<line style="fill:none;stroke:#CDDBF0;stroke-width:6.7301;stroke-linecap:round;stroke-miterlimit:10;" x1="371.441" y1="71.942" x2="387.225" y2="56.158"/>
			
				<line style="fill:none;stroke:#CDDBF0;stroke-width:6.7301;stroke-linecap:round;stroke-miterlimit:10;" x1="613.444" y1="259.222" x2="623.873" y2="248.793"/>
			
				<line style="fill:none;stroke:#CDDBF0;stroke-width:6.7301;stroke-linecap:round;stroke-miterlimit:10;" x1="482.864" y1="424.487" x2="505.837" y2="401.514"/>
			
				<line style="fill:none;stroke:#CDDBF0;stroke-width:6.7301;stroke-linecap:round;stroke-miterlimit:10;" x1="129.624" y1="302.074" x2="140" y2="291.698"/>
		</g>
	</g>
	<g>
		<circle style="fill:#545172;" cx="707.36" cy="415.599" r="4.5"/>
		<circle style="fill:#DDDCE3;" cx="707.36" cy="434.637" r="4.5"/>
		<circle style="fill:#DDDCE3;" cx="707.36" cy="453.676" r="4.5"/>
	</g>
	<text transform="matrix(1 0 0 1 30.36 43.9115)" style="fill:#545172; font-family:'Montserrat-Regular'; font-size:8px;">HOME</text>
	<text transform="matrix(1 0 0 1 30.36 76.2907)" style="fill:#DDDCE3; font-family:'Montserrat-Regular'; font-size:8px;">TRENDING</text>
	<text transform="matrix(1 0 0 1 30.36 108.6699)" style="fill:#DDDCE3; font-family:'Montserrat-Regular'; font-size:8px;">ARCHIVE</text>
	<text transform="matrix(1 0 0 1 30.36 141.0491)" style="fill:#DDDCE3; font-family:'Montserrat-Regular'; font-size:8px;">CONTACT US</text>
	<line style="fill:none;stroke:#DDDCE3;stroke-miterlimit:10;" x1="707.36" y1="394.206" x2="707.36" y2="224.003"/>
	<line style="fill:none;stroke:#DDDCE3;stroke-miterlimit:10;" x1="30.36" y1="344.323" x2="30.36" y2="174.12"/>
</g>
<g id="DESIGNED_BY_FREEPIK">
	<g>
		<g id="XMLID_319_">
			<g id="XMLID_338_">
				<path id="XMLID_346_" style="fill:#1D262D;" d="M385.104,465.465c-0.432,0.443-0.803,0.931-1.108,1.453l-0.465-0.241
					c-0.067-0.298-0.349-0.503-0.659-0.466c-0.331,0.039-0.568,0.339-0.529,0.67c0.039,0.331,0.339,0.568,0.67,0.529
					c0.066-0.008,0.127-0.026,0.184-0.052l0.451,0.234c-0.251,0.554-0.433,1.139-0.539,1.744l0.747,0.132
					c0.23-1.306,0.85-2.507,1.792-3.473L385.104,465.465z"/>
				<path id="XMLID_345_" style="fill:#1D262D;" d="M390.592,463.163c-0.171,0-0.341,0.006-0.51,0.017l-0.074-0.626
					c0.188-0.149,0.296-0.389,0.266-0.645c-0.046-0.393-0.402-0.674-0.795-0.628c-0.393,0.046-0.674,0.402-0.628,0.795
					c0.03,0.254,0.189,0.461,0.404,0.564l0.074,0.624c-0.714,0.116-1.403,0.332-2.06,0.646l0.327,0.684
					c0.934-0.447,1.942-0.673,2.995-0.673c0.496,0,0.993,0.053,1.475,0.158l0.161-0.741
					C391.692,463.222,391.142,463.163,390.592,463.163z"/>
				<path id="XMLID_344_" style="fill:#1D262D;" d="M397.194,465.711c0.331-0.04,0.566-0.341,0.526-0.672
					c-0.04-0.331-0.341-0.566-0.672-0.526c-0.309,0.038-0.535,0.304-0.53,0.609l-0.416,0.363c-0.418-0.43-0.889-0.813-1.408-1.139
					l-0.404,0.641c1.134,0.715,2.021,1.726,2.563,2.925l0.69-0.313c-0.251-0.554-0.567-1.072-0.942-1.545l0.402-0.351
					C397.065,465.716,397.129,465.719,397.194,465.711z"/>
				<path id="XMLID_343_" style="fill:#1D262D;" d="M390.044,473.372c-0.386,0.023-0.775,0.035-1.157,0.035
					c-0.88,0-1.733-0.061-2.478-0.179c-0.39-0.062-0.846-0.155-1.27-0.292c1.046,1.861,3.069,3.125,5.388,3.125
					c2.855,0,5.262-1.916,5.95-4.504c-0.682,0.449-1.505,0.825-2.459,1.123C392.839,473.047,391.463,473.286,390.044,473.372z"/>
				<path id="XMLID_339_" style="fill:#1D262D;" d="M390.592,464.68c-3.352,0-6.08,2.666-6.08,5.943
					c0,0.426,0.046,0.849,0.137,1.261c0.673,0.483,2.706,0.89,5.348,0.731c2.879-0.173,5.297-0.957,6.672-2.159
					c-0.006-0.195-0.021-0.39-0.045-0.582C396.244,466.913,393.65,464.68,390.592,464.68z M388.432,471.194
					c-1.02,0-1.85-0.83-1.85-1.85c0-1.02,0.83-1.85,1.85-1.85c1.02,0,1.85,0.83,1.85,1.85
					C390.282,470.365,389.452,471.194,388.432,471.194z M393.17,470.286c-0.75,0-1.36-0.61-1.36-1.36s0.61-1.361,1.36-1.361
					c0.75,0,1.361,0.61,1.361,1.361S393.92,470.286,393.17,470.286z"/>
			</g>
			<path id="XMLID_336_" style="fill:#1D262D;" d="M406.595,466.547c-0.295-0.116-0.805-0.309-1.382-0.237
				c-0.551,0.069-0.844,0.341-0.844,1.007v0.866h2.228v1.717h-2.228v5.455h-1.932v-5.455h-1.34v-1.717h1.34v-0.888
				c0-1.68,0.896-2.783,2.568-2.783c0.643,0,1.157,0.122,1.59,0.308L406.595,466.547z"/>
			<path id="XMLID_334_" style="fill:#1D262D;" d="M411.298,469.879c-0.177-0.03-0.358-0.046-0.526-0.046
				c-0.896,0-1.51,0.548-1.51,1.614v3.908h-1.932v-7.172h1.873v0.785c0.451-0.673,1.14-0.977,2.021-0.977
				c0.414,0,0.848,0.128,1.094,0.337L411.298,469.879z"/>
			<path id="XMLID_331_" style="fill:#1D262D;" d="M418.965,471.757c0,0.222-0.015,0.489-0.037,0.651h-5.085
				c0.207,1.036,0.933,1.488,1.843,1.488c0.622,0,1.295-0.252,1.813-0.688l1.133,1.243c-0.814,0.748-1.85,1.088-3.057,1.088
				c-2.198,0-3.723-1.495-3.723-3.753c0-2.258,1.48-3.797,3.627-3.797C417.544,467.99,418.958,469.522,418.965,471.757z
				 M413.851,471.091h3.175c-0.177-0.918-0.733-1.436-1.562-1.436C414.554,469.655,414.021,470.203,413.851,471.091z"/>
			<path id="XMLID_328_" style="fill:#1D262D;" d="M426.618,471.757c0,0.222-0.015,0.489-0.037,0.651h-5.085
				c0.207,1.036,0.932,1.488,1.843,1.488c0.622,0,1.295-0.252,1.814-0.688l1.132,1.243c-0.814,0.748-1.85,1.088-3.057,1.088
				c-2.198,0-3.723-1.495-3.723-3.753c0-2.258,1.48-3.797,3.627-3.797C425.197,467.99,426.611,469.522,426.618,471.757z
				 M421.504,471.091h3.175c-0.178-0.918-0.733-1.436-1.562-1.436C422.207,469.655,421.674,470.203,421.504,471.091z"/>
			<path id="XMLID_325_" style="fill:#1D262D;" d="M434.964,471.764c0,2.154-1.495,3.775-3.471,3.775
				c-0.962,0-1.643-0.378-2.109-0.933v3.708h-1.924v-10.133h1.887v0.792c0.466-0.585,1.155-0.984,2.139-0.984
				C433.469,467.99,434.964,469.61,434.964,471.764z M429.287,471.764c0,1.132,0.747,1.976,1.843,1.976
				c1.14,0,1.85-0.881,1.85-1.976c0-1.095-0.71-1.976-1.85-1.976C430.035,469.788,429.287,470.632,429.287,471.764z"/>
			<path id="XMLID_322_" style="fill:#1D262D;" d="M438.068,465.836c0,0.696-0.54,1.229-1.236,1.229
				c-0.696,0-1.229-0.533-1.229-1.229c0-0.696,0.533-1.243,1.229-1.243C437.527,464.592,438.068,465.14,438.068,465.836z
				 M437.809,475.354h-1.932v-7.172h1.932V475.354z"/>
			<path id="XMLID_320_" style="fill:#1D262D;" d="M441.032,470.736l2.701-2.554h2.368l-3.479,3.375l3.501,3.797h-2.376
				l-2.716-2.901v2.901H439.1v-10.658h1.932V470.736z"/>
		</g>
		<g>
			<path style="fill:#1D262D;" d="M309.412,475.289v-1.055c-0.527,0.718-1.391,1.23-2.387,1.23c-1.846,0-3.149-1.406-3.149-3.706
				c0-2.256,1.289-3.721,3.149-3.721c0.952,0,1.816,0.469,2.387,1.245v-3.765h1.099v9.77H309.412z M309.412,473.37v-3.208
				c-0.395-0.615-1.245-1.143-2.124-1.143c-1.421,0-2.27,1.172-2.27,2.739c0,1.567,0.85,2.724,2.27,2.724
				C308.168,474.483,309.017,473.986,309.412,473.37z"/>
			<path style="fill:#1D262D;" d="M311.932,471.744c0-2.051,1.465-3.706,3.486-3.706c2.139,0,3.398,1.67,3.398,3.794v0.279h-5.727
				c0.088,1.333,1.026,2.446,2.549,2.446c0.805,0,1.626-0.322,2.182-0.894l0.527,0.718c-0.703,0.703-1.655,1.084-2.812,1.084
				C313.44,475.465,311.932,473.956,311.932,471.744z M315.404,468.947c-1.509,0-2.256,1.274-2.315,2.358h4.643
				C317.718,470.25,317.015,468.947,315.404,468.947z"/>
			<path style="fill:#1D262D;" d="M319.607,474.351l0.571-0.791c0.469,0.542,1.362,1.011,2.329,1.011c1.084,0,1.67-0.513,1.67-1.216
				c0-1.714-4.38-0.659-4.38-3.281c0-1.098,0.952-2.036,2.636-2.036c1.201,0,2.051,0.454,2.622,1.026l-0.513,0.762
				c-0.424-0.513-1.201-0.894-2.109-0.894c-0.967,0-1.567,0.483-1.567,1.113c0,1.552,4.38,0.527,4.38,3.281
				c0,1.187-0.952,2.138-2.783,2.138C321.306,475.465,320.325,475.113,319.607,474.351z"/>
			<path style="fill:#1D262D;" d="M326.477,466.471c0-0.41,0.337-0.747,0.732-0.747c0.41,0,0.747,0.337,0.747,0.747
				c0,0.41-0.337,0.732-0.747,0.732C326.814,467.203,326.477,466.881,326.477,466.471z M326.667,475.289v-7.075h1.099v7.075H326.667
				z"/>
			<path style="fill:#1D262D;" d="M329.582,477.105l0.556-0.82c0.586,0.703,1.289,0.967,2.3,0.967c1.172,0,2.27-0.571,2.27-2.124
				v-1.011c-0.513,0.718-1.377,1.26-2.373,1.26c-1.845,0-3.149-1.377-3.149-3.662c0-2.27,1.289-3.677,3.149-3.677
				c0.952,0,1.802,0.469,2.373,1.245v-1.069h1.099v6.87c0,2.344-1.641,3.076-3.369,3.076
				C331.237,478.16,330.417,477.926,329.582,477.105z M334.709,473.253v-3.091c-0.381-0.615-1.23-1.143-2.109-1.143
				c-1.421,0-2.27,1.128-2.27,2.695c0,1.553,0.849,2.695,2.27,2.695C333.478,474.41,334.328,473.868,334.709,473.253z"/>
			<path style="fill:#1D262D;" d="M342.413,475.289v-4.629c0-1.245-0.63-1.641-1.582-1.641c-0.865,0-1.685,0.527-2.095,1.099v5.17
				h-1.099v-7.075h1.099v1.025c0.498-0.586,1.465-1.201,2.519-1.201c1.48,0,2.256,0.747,2.256,2.285v4.966H342.413z"/>
			<path style="fill:#1D262D;" d="M344.932,471.744c0-2.051,1.465-3.706,3.486-3.706c2.138,0,3.398,1.67,3.398,3.794v0.279h-5.727
				c0.088,1.333,1.025,2.446,2.549,2.446c0.806,0,1.626-0.322,2.183-0.894l0.527,0.718c-0.703,0.703-1.655,1.084-2.812,1.084
				C346.441,475.465,344.932,473.956,344.932,471.744z M348.404,468.947c-1.509,0-2.256,1.274-2.314,2.358h4.643
				C350.718,470.25,350.015,468.947,348.404,468.947z"/>
			<path style="fill:#1D262D;" d="M358.35,475.289v-1.055c-0.527,0.718-1.392,1.23-2.388,1.23c-1.845,0-3.149-1.406-3.149-3.706
				c0-2.256,1.289-3.721,3.149-3.721c0.952,0,1.817,0.469,2.388,1.245v-3.765h1.098v9.77H358.35z M358.35,473.37v-3.208
				c-0.396-0.615-1.245-1.143-2.124-1.143c-1.421,0-2.27,1.172-2.27,2.739c0,1.567,0.849,2.724,2.27,2.724
				C357.105,474.483,357.954,473.986,358.35,473.37z"/>
			<path style="fill:#1D262D;" d="M364.692,475.289v-9.77h1.099v3.765c0.572-0.776,1.421-1.245,2.388-1.245
				c1.845,0,3.149,1.465,3.149,3.721c0,2.299-1.304,3.706-3.149,3.706c-0.996,0-1.86-0.513-2.388-1.23v1.055H364.692z
				 M367.9,474.483c1.436,0,2.286-1.157,2.286-2.724c0-1.568-0.85-2.739-2.286-2.739c-0.864,0-1.728,0.527-2.109,1.143v3.208
				C366.171,473.986,367.036,474.483,367.9,474.483z"/>
			<path style="fill:#1D262D;" d="M372.529,477.061c0.161,0.073,0.425,0.117,0.601,0.117c0.483,0,0.806-0.161,1.055-0.747
				l0.469-1.069l-2.959-7.148h1.187l2.358,5.8l2.344-5.8h1.201l-3.545,8.51c-0.425,1.025-1.143,1.421-2.08,1.435
				c-0.234,0-0.601-0.044-0.806-0.103L372.529,477.061z"/>
		</g>
	</g>
</g>
</svg>
